<mxfile host="app.diagrams.net" modified="2025-01-15T02:58:04.621Z" agent="Mozilla/5.0 (Windows NT 10.0; Win64; x64) AppleWebKit/537.36 (KHTML, like Gecko) Chrome/131.0.0.0 Safari/537.36 Edg/131.0.0.0" version="24.7.1" etag="K_HpCPeW3ZhRdhvVulWx" type="github">
  <diagram name="Page-1" id="2KfSKzagt-H9lkBOi7nG">
    <mxGraphModel>
      <root>
        <mxCell id="0" />
        <mxCell id="1" parent="0" />
      </root>
    </mxGraphModel>
  </diagram>
</mxfile>
